<svg xmlns="http://www.w3.org/2000/svg" viewBox="0 0 64 64"><g id="Layer_18" data-name="Layer 18"><path d="M60,32.79H58.15V28.27a2.81,2.81,0,1,0-2,0v4.52H53.74V29.45C53.74,19.69,49,12,43,12a1,1,0,0,0-1,1v2H39.65a1,1,0,0,0-1,1v9.6a1,1,0,0,0,1,1H42v1.8H30.09v-1.8h2.36a1,1,0,0,0,1-1v-9.6a1,1,0,0,0-1-1H30.09V13a1,1,0,0,0-1-1c-4.95,0-9.24,5.5-10.41,13.18H6.59a1,1,0,0,0-1,1v19H4a1,1,0,0,0-1,1V51a1,1,0,0,0,1,1H36.33a1,1,0,0,0,0-2H26.91v-3.8a1,1,0,0,0-1-1h-1.6V42.51H52.74a1,1,0,0,0,1-1V38.17h2.41V42.9a2.81,2.81,0,1,0,2,0V38.17H60a1,1,0,0,0,1-1V33.79A1,1,0,0,0,60,32.79ZM30.09,17.05h1.36v7.6H30.09ZM44,25.65V14.15c4.15.84,7.42,6.86,7.69,14.3H44Zm-3.37-1v-7.6H42v7.6ZM7.59,27.21H22.31v18H7.59Zm17.32,20V50H5v-2.8Zm-1.6-22H20.7c1-6,3.92-10.35,7.39-11.06v14.3H24.31V26.21A1,1,0,0,0,23.31,25.21Zm28.43,8.58v6.72H24.31V30.45H51.74Zm4.41,2.38H53.74V34.79h2.41Zm1,10.17a.82.82,0,0,1,0-1.63A.82.82,0,0,1,57.15,46.34Zm.21-19.92a.64.64,0,0,0-.43,0,.81.81,0,1,1,.43,0ZM59,36.17h-.85V34.79H59Z"/></g></svg>