<?xml version="1.0" encoding="UTF-8" standalone="no"?> <svg width="64" height="64" viewBox="0 0 64 64" fill="none" xmlns="http://www.w3.org/2000/svg">
<path d="M34.81 18.78H33V15.29C33 15.0248 32.8946 14.7705 32.7071 14.5829C32.5196 14.3954 32.2652 14.29 32 14.29C31.7348 14.29 31.4804 14.3954 31.2929 14.5829C31.1053 14.7705 31 15.0248 31 15.29V18.78H29.19C28.4394 18.78 27.7196 19.0782 27.1889 19.6089C26.6581 20.1397 26.36 20.8595 26.36 21.61V21.86C26.36 22.6106 26.6581 23.3304 27.1889 23.8612C27.7196 24.3919 28.4394 24.69 29.19 24.69H34.82C35.5705 24.69 36.2904 24.3919 36.8211 23.8612C37.3518 23.3304 37.65 22.6106 37.65 21.86V21.6C37.6487 21.2284 37.5742 20.8607 37.4307 20.5178C37.2873 20.175 37.0777 19.8637 36.814 19.6019C36.5503 19.34 36.2376 19.1326 35.8937 18.9916C35.5499 18.8506 35.1816 18.7787 34.81 18.78V18.78Z" fill="#BF530A"/>
<path d="M39.77 53.75H24.22C22.3754 53.75 20.88 55.2454 20.88 57.09V57.59C20.88 59.4346 22.3754 60.93 24.22 60.93H39.77C41.6146 60.93 43.11 59.4346 43.11 57.59V57.09C43.11 55.2454 41.6146 53.75 39.77 53.75Z" fill="#F56500"/>
<path d="M39.77 22.6802H24.22C22.3754 22.6802 20.88 24.1755 20.88 26.0202V26.5202C20.88 28.3648 22.3754 29.8602 24.22 29.8602H39.77C41.6146 29.8602 43.11 28.3648 43.11 26.5202V26.0202C43.11 24.1755 41.6146 22.6802 39.77 22.6802Z" fill="#F56500"/>
<path d="M43.13 27.8601H20.88C19.0354 27.8601 17.54 29.3555 17.54 31.2001V31.7001C17.54 33.5447 19.0354 35.0401 20.88 35.0401H43.13C44.9747 35.0401 46.47 33.5447 46.47 31.7001V31.2001C46.47 29.3555 44.9747 27.8601 43.13 27.8601Z" fill="#BF530A"/>
<path d="M43.13 48.5801H20.88C19.0354 48.5801 17.54 50.0754 17.54 51.9201V52.4201C17.54 54.2647 19.0354 55.7601 20.88 55.7601H43.13C44.9747 55.7601 46.47 54.2647 46.47 52.4201V51.9201C46.47 50.0754 44.9747 48.5801 43.13 48.5801Z" fill="#BF530A"/>
<path d="M45.94 33H18.06C17.1759 33 16.3278 33.3505 15.7018 33.9747C15.0757 34.5989 14.7226 35.4459 14.72 36.33V36.84C14.72 37.7258 15.0719 38.5754 15.6982 39.2017C16.3246 39.8281 17.1741 40.18 18.06 40.18H27.11C27.2936 40.1804 27.4738 40.1302 27.6308 40.0349C27.7878 39.9397 27.9155 39.803 28 39.64C28.3858 38.9141 28.962 38.3069 29.6666 37.8834C30.3713 37.46 31.1779 37.2362 32 37.2362C32.8221 37.2362 33.6287 37.46 34.3333 37.8834C35.038 38.3069 35.6141 38.9141 36 39.64C36.0844 39.803 36.2122 39.9397 36.3692 40.0349C36.5262 40.1302 36.7063 40.1804 36.89 40.18H45.94C46.3786 40.18 46.8129 40.0936 47.2181 39.9258C47.6234 39.7579 47.9916 39.5119 48.3017 39.2017C48.6119 38.8916 48.8579 38.5234 49.0257 38.1182C49.1936 37.7129 49.28 37.2786 49.28 36.84V36.33C49.2773 35.4459 48.9243 34.5989 48.2982 33.9747C47.6721 33.3505 46.8241 33 45.94 33V33Z" fill="#F56500"/>
<path d="M45.89 43.4001H36.89C36.748 43.4003 36.6077 43.4307 36.4784 43.4894C36.3491 43.548 36.2337 43.6335 36.14 43.7401C36.0404 43.8557 35.9686 43.9925 35.93 44.1401C35.5261 44.8421 34.9414 45.4229 34.2368 45.8221C33.5322 46.2213 32.7334 46.4244 31.9237 46.4101C31.114 46.3958 30.3229 46.1647 29.6328 45.7408C28.9428 45.317 28.3789 44.7159 28 44.0001V43.9101C27.9011 43.7524 27.764 43.6221 27.6015 43.5313C27.439 43.4404 27.2562 43.3919 27.07 43.3901H18C17.1159 43.3901 16.2679 43.7407 15.6418 44.3649C15.0157 44.9891 14.6627 45.836 14.66 46.7201V47.2301C14.66 47.6688 14.7464 48.1031 14.9143 48.5083C15.0821 48.9135 15.3282 49.2817 15.6383 49.5919C15.9484 49.902 16.3166 50.148 16.7219 50.3159C17.1271 50.4837 17.5614 50.5701 18 50.5701H45.89C46.7741 50.5701 47.6222 50.2196 48.2482 49.5954C48.8743 48.9712 49.2274 48.1242 49.23 47.2401V46.7301C49.2274 45.846 48.8743 44.9991 48.2482 44.3749C47.6222 43.7507 46.7741 43.4001 45.89 43.4001Z" fill="#F56500"/>
<path d="M58.31 27.1901C57.9626 26.2869 57.2934 25.5442 56.4313 25.1048C55.5691 24.6654 54.5749 24.5604 53.64 24.8101C53.2514 24.3498 53.0204 23.7773 52.9809 23.1763C52.9413 22.5752 53.0952 21.9773 53.42 21.4701C53.5134 21.3588 53.5815 21.2284 53.6194 21.0881C53.6574 20.9477 53.6642 20.8008 53.6396 20.6576C53.615 20.5143 53.5594 20.3782 53.4767 20.2586C53.3941 20.139 53.2864 20.0389 53.1611 19.9652C53.0358 19.8915 52.896 19.846 52.7513 19.8319C52.6066 19.8178 52.4606 19.8353 52.3234 19.8834C52.1863 19.9314 52.0612 20.0088 51.957 20.1102C51.8528 20.2115 51.7719 20.3343 51.72 20.4701C51.2116 21.2794 50.9537 22.2208 50.9786 23.1762C51.0035 24.1316 51.3102 25.0584 51.86 25.8401C51.3075 26.3849 50.9255 27.0787 50.7603 27.8369C50.5952 28.595 50.6542 29.3848 50.93 30.1101V30.1101C51.5077 31.3908 52.4503 32.4726 53.64 33.2201C54.2097 33.6667 54.7234 34.1804 55.17 34.7501C55.68 35.3601 56.08 35.8401 56.74 35.8701H56.79C56.9578 35.8698 57.1238 35.8361 57.2783 35.7709C57.4329 35.7056 57.5728 35.6101 57.69 35.4901C59.41 33.7101 59 28.8601 58.31 27.1901ZM56.64 33.3201C56.1133 32.6629 55.5089 32.0719 54.84 31.5601C53.9694 31.0331 53.2736 30.2608 52.84 29.3401C52.7099 28.9902 52.6802 28.6109 52.7544 28.2451C52.8287 27.8793 53.0038 27.5416 53.26 27.2701L55.42 30.6001L54.77 26.6901C55.1423 26.7166 55.4998 26.8468 55.802 27.0659C56.1042 27.2851 56.3391 27.5844 56.48 27.9301C56.9671 29.6876 57.022 31.5368 56.64 33.3201V33.3201Z" fill="#4F7F0A"/>
<path d="M14.52 16.1301C12.44 16.1301 10.75 17.9801 10.33 20.5301C9.26347 20.2758 8.14252 20.3857 7.14575 20.8424C6.14898 21.2991 5.33375 22.0763 4.82997 23.0501C3.77997 25.0501 2.48997 31.3601 4.39997 33.7401C4.51935 33.8937 4.67051 34.0197 4.84311 34.1095C5.01571 34.1992 5.20566 34.2506 5.39997 34.2601H5.49997C6.18997 34.2601 6.69997 33.7601 7.39997 33.0901C8.09524 32.3786 8.87427 31.754 9.71997 31.2301C11.3578 30.4423 12.7279 29.1904 13.66 27.6301C14.1849 26.5979 14.3353 25.4155 14.0854 24.2847C13.8356 23.154 13.201 22.145 12.29 21.4301C12.41 19.6101 13.4 18.1301 14.57 18.1301C14.8352 18.1301 15.0895 18.0248 15.2771 17.8372C15.4646 17.6497 15.57 17.3953 15.57 17.1301C15.57 16.8649 15.4646 16.6106 15.2771 16.423C15.0895 16.2355 14.8352 16.1301 14.57 16.1301H14.52ZM11.84 26.7201C11.47 27.4201 10.84 28.2501 8.66997 29.5201C7.69679 30.123 6.80026 30.8416 5.99997 31.6601L5.69997 31.9501C5.05997 30.0801 5.69997 25.7401 6.62997 23.9501C6.80859 23.6064 7.05337 23.3013 7.35027 23.0525C7.64716 22.8036 7.9903 22.6159 8.35997 22.5001C8.6479 22.4089 8.94795 22.3617 9.24997 22.3601C9.4214 22.3651 9.59206 22.3852 9.75997 22.4201L7.93997 27.8201L11.32 23.2301C11.7643 23.6823 12.0539 24.2636 12.1473 24.8906C12.2407 25.5176 12.1331 26.1581 11.84 26.7201Z" fill="#4F7F0A"/>
<path d="M60 19.5601L48 12.2301L50.42 10.7901C50.9692 10.4616 51.366 9.92884 51.5234 9.30851C51.6808 8.68818 51.5861 8.03075 51.26 7.48008L50.6 6.42008C50.2715 5.87084 49.7388 5.47409 49.1184 5.31667C48.4981 5.15924 47.8407 5.25396 47.29 5.58008L38.43 10.8601L28.1 9.78008H27.82C27.7238 9.76599 27.6262 9.76599 27.53 9.78008L21.64 10.7801L16.45 4.00008C16.0613 3.48975 15.4859 3.15463 14.8502 3.06837C14.2145 2.98212 13.5706 3.15178 13.06 3.54008L12.06 4.28008C11.8059 4.47262 11.5923 4.71348 11.4316 4.98881C11.2708 5.26415 11.1661 5.56853 11.1233 5.88447C11.0806 6.20041 11.1007 6.52169 11.1825 6.82984C11.2643 7.13799 11.4062 7.42693 11.6 7.68008L14.87 11.9801L11.87 12.4901L5 12.5501C4.46957 12.5501 3.96086 12.7608 3.58579 13.1359C3.21071 13.5109 3 14.0196 3 14.5501V16.6301C3.01015 17.1591 3.22949 17.6625 3.61 18.0301C3.99416 18.3917 4.50242 18.5921 5.03 18.5901L12.16 18.4701H12.46L27.86 15.8401L45.19 17.6301L56.84 24.7201C57.3068 25.0038 57.8672 25.0905 58.3979 24.9611C58.9286 24.8317 59.3862 24.4968 59.67 24.0301L60.67 22.3601C60.9461 21.8983 61.0305 21.3468 60.9053 20.8236C60.7801 20.3004 60.4552 19.8469 60 19.5601V19.5601Z" fill="#A03A0D"/>
<path d="M27.93 43.8001C27.6129 43.1609 27.4537 42.455 27.4659 41.7415C27.478 41.0281 27.6612 40.328 28 39.7001C28.0635 39.5815 28.1025 39.4512 28.1145 39.3172C28.1266 39.1832 28.1114 39.0481 28.07 38.9201C28.0504 38.8492 28.02 38.7817 27.98 38.7201C27.9381 38.6421 27.8841 38.5712 27.82 38.5101C27.7659 38.4494 27.7016 38.3987 27.63 38.3601V38.3601H27.57C27.4403 38.2928 27.2961 38.2584 27.15 38.2601H15.34C14.4628 38.26 13.6207 38.605 12.9958 39.2206C12.3708 39.8362 12.0131 40.6729 12 41.5501V42.0601C12.0026 42.9451 12.3554 43.7931 12.9812 44.4189C13.607 45.0447 14.455 45.3974 15.34 45.4001H27.11C27.3752 45.4001 27.6296 45.2947 27.8171 45.1072C28.0046 44.9196 28.11 44.6653 28.11 44.4001C28.0983 44.1826 28.0216 43.9736 27.89 43.8001H27.93Z" fill="#BF530A"/>
<path d="M48.66 38.22H36.89C36.7439 38.2184 36.5996 38.2527 36.47 38.32H36.41C36.3384 38.3586 36.2741 38.4094 36.22 38.47C36.1559 38.5312 36.1019 38.602 36.06 38.68C36.0199 38.7417 35.9896 38.8092 35.97 38.88C35.9286 39.0081 35.9134 39.1431 35.9254 39.2772C35.9375 39.4112 35.9764 39.5414 36.04 39.66C36.3771 40.287 36.5586 40.9859 36.569 41.6977C36.5795 42.4095 36.4186 43.1134 36.1 43.75C36.0082 43.8488 35.9428 43.9692 35.91 44.1C35.8948 44.1827 35.8948 44.2674 35.91 44.35C35.91 44.6152 36.0153 44.8696 36.2029 45.0571C36.3904 45.2447 36.6448 45.35 36.91 45.35H48.66C49.5372 45.3501 50.3793 45.0051 51.0042 44.3895C51.6292 43.7739 51.9868 42.9372 52 42.06V41.55C51.9973 40.6659 51.6443 39.819 51.0182 39.1948C50.3921 38.5705 49.5441 38.22 48.66 38.22V38.22Z" fill="#BF530A"/>
<path d="M37.78 38.77C37.2236 37.7241 36.3931 36.8493 35.3776 36.2392C34.362 35.6292 33.1997 35.3069 32.015 35.3069C30.8303 35.3069 29.6679 35.6292 28.6524 36.2392C27.6368 36.8493 26.8064 37.7241 26.25 38.77V38.77C25.7484 39.7084 25.486 40.756 25.486 41.82C25.486 42.884 25.7484 43.9316 26.25 44.87C26.8079 45.9156 27.6394 46.7899 28.6557 47.3996C29.672 48.0092 30.8348 48.3313 32.02 48.3313C33.2051 48.3313 34.3679 48.0092 35.3842 47.3996C36.4005 46.7899 37.2321 45.9156 37.79 44.87V44.79C38.2753 43.8645 38.5288 42.8351 38.5288 41.79C38.5288 40.745 38.2753 39.7155 37.79 38.79L37.78 38.77ZM36 43.91V44C35.6046 44.7193 35.0216 45.318 34.313 45.7323C33.6044 46.1466 32.7968 46.361 31.976 46.3528C31.1553 46.3446 30.3521 46.114 29.6519 45.6856C28.9518 45.2573 28.3809 44.6471 28 43.92C27.6503 43.2718 27.4681 42.5465 27.47 41.81C27.4655 41.0732 27.6478 40.3473 28 39.7C28.3858 38.9741 28.962 38.3669 29.6666 37.9434C30.3713 37.52 31.1779 37.2963 32 37.2963C32.8221 37.2963 33.6287 37.52 34.3333 37.9434C35.038 38.3669 35.6141 38.9741 36 39.7V39.7C36.3466 40.3475 36.528 41.0706 36.528 41.805C36.528 42.5395 36.3466 43.2625 36 43.91V43.91Z" fill="#F56500"/>
</svg>
