<?xml version="1.0" encoding="UTF-8" standalone="no"?> <svg width="64" height="64" viewBox="0 0 64 64" fill="none" xmlns="http://www.w3.org/2000/svg">
<path d="M58.14 21.0001C57.5626 19.5387 56.6224 18.2486 55.4082 17.2513C54.1939 16.254 52.7457 15.5825 51.2 15.3001V15.3001L46.93 14.0001L41.83 12.4701C43.64 8.00006 47.55 4.57006 52.36 6.00006C52.4916 5.98639 52.6192 5.94672 52.7354 5.88336C52.8516 5.82 52.9541 5.73421 53.0369 5.63096C53.1196 5.52771 53.1811 5.40906 53.2177 5.28188C53.2543 5.1547 53.2653 5.02152 53.25 4.89006C53.2286 4.69419 53.1497 4.50902 53.0234 4.35779C52.8971 4.20657 52.7289 4.09603 52.54 4.04006C46.72 2.30006 38.36 4.91006 35.88 10.7001C33.57 10.0201 28.88 8.62006 26.62 7.93006C21.82 5.87006 15.83 8.42006 14.41 13.5501L13.34 17.1201C12.94 18.4201 14.87 18.5601 15.67 18.8601C6.67 37.4401 7.46 44.6201 23.67 58.4501H4C3.73478 58.4501 3.48043 58.5554 3.29289 58.743C3.10536 58.9305 3 59.1848 3 59.4501C3 59.7153 3.10536 59.9696 3.29289 60.1572C3.48043 60.3447 3.73478 60.4501 4 60.4501H48.84C49.1052 60.4501 49.3596 60.3447 49.5471 60.1572C49.7346 59.9696 49.84 59.7153 49.84 59.4501C49.84 59.1848 49.7346 58.9305 49.5471 58.743C49.3596 58.5554 49.1052 58.4501 48.84 58.4501H30.44C36.19 57.4501 44.88 55.1601 48.03 50.6501C52.64 44.0701 54.03 33.9501 54.37 30.4301C55.18 30.6101 56.91 31.5601 57.27 30.2501C58.15 27.4301 59.45 23.9401 58.14 21.0001ZM55.91 21.0001L52.11 23.0001L49.5 18.1701L51 17.3401C52.0387 17.5477 53.0181 17.9839 53.8673 18.6169C54.7166 19.25 55.4143 20.064 55.91 21.0001V21.0001ZM30.72 11.2701L35.8 12.7901L36.63 14.3201L31.8 16.9301L29.19 12.0901L30.72 11.2701ZM46 15.8201L46.83 17.3601L42 20.0001L39.39 15.1601L40.93 14.3301L46 15.8201ZM29 20.7501L31 19.6401L32.1 21.7001L29 20.7501ZM39.15 23.7501L41.21 22.6401L42.32 24.6901L39.15 23.7501ZM36.37 23.0001L34.81 22.5301L32.75 18.7101L37.58 16.1001L40.19 20.9401L36.37 23.0001ZM30 17.8801L26.18 19.9401L24.61 19.4701L22.55 15.6601L27.43 13.0001L30 17.8801ZM21.9 18.6601L18.73 17.7101L20.79 16.6001L21.9 18.6601ZM49.2 26.8201L51.26 25.7101L52.37 27.7701L49.2 26.8201ZM46.53 26.0001L45 25.5401L42.9 21.7301L47.74 19.1201L50.35 24.0001L46.53 26.0001ZM43.43 6.52006C41.891 8.05717 40.6918 9.90025 39.91 11.9301L37.8 11.3001C38.998 9.04671 41.0122 7.33663 43.43 6.52006ZM24.88 9.52006L25.65 9.75006L26.48 11.2801L21.64 13.9001L19.59 10.1001C20.3868 9.65105 21.2664 9.36816 22.1756 9.26848C23.0848 9.16879 24.0048 9.25438 24.88 9.52006V9.52006ZM16.32 14.1401C16.6443 13.0812 17.2208 12.1169 18 11.3301L19.9 14.8401L16.08 16.9101L15.56 16.7501L16.32 14.1401ZM46.39 49.5301C42.52 55.0601 27.91 56.9101 25.29 57.2001C9.29 43.5401 8.82 37.7601 17.62 19.4601L23.7 21.2801L52.4 29.8601C52.13 32.7801 50.86 43.1401 46.39 49.5301ZM56.39 26.1301L55.61 28.7401L55.09 28.5801L53.03 24.7601L56.55 22.8701C56.7715 23.9512 56.7268 25.07 56.42 26.1301H56.39Z" fill="black"/>
<path d="M55.3201 58.4702H52.5601C52.2948 58.4702 52.0405 58.5756 51.853 58.7631C51.6654 58.9506 51.5601 59.205 51.5601 59.4702C51.5601 59.7354 51.6654 59.9898 51.853 60.1773C52.0405 60.3649 52.2948 60.4702 52.5601 60.4702H55.3201C55.5853 60.4702 55.8396 60.3649 56.0272 60.1773C56.2147 59.9898 56.3201 59.7354 56.3201 59.4702C56.3201 59.205 56.2147 58.9506 56.0272 58.7631C55.8396 58.5756 55.5853 58.4702 55.3201 58.4702Z" fill="black"/>
<path d="M59.9999 58.4702H58.8599C58.5946 58.4702 58.3403 58.5756 58.1528 58.7631C57.9652 58.9506 57.8599 59.205 57.8599 59.4702C57.8599 59.7354 57.9652 59.9898 58.1528 60.1773C58.3403 60.3649 58.5946 60.4702 58.8599 60.4702H59.9999C60.2651 60.4702 60.5194 60.3649 60.707 60.1773C60.8945 59.9898 60.9999 59.7354 60.9999 59.4702C60.9999 59.205 60.8945 58.9506 60.707 58.7631C60.5194 58.5756 60.2651 58.4702 59.9999 58.4702Z" fill="black"/>
</svg>
